<svg xmlns="http://www.w3.org/2000/svg" width="100" height="100" viewBox="0 0 100 100">
  <!-- fork -->
  <g fill="black">
    <rect x="29" y="20" width="3" height="14"/>
    <rect x="35" y="20" width="3" height="14"/>
    <rect x="41" y="20" width="3" height="14"/>
    <path d="M28 32 h17 a3 3 0 0 1 3 3 v3 a8 8 0 0 1 -7 8 v34 a2.5 2.5 0 0 1 -5 0 v-34 a8 8 0 0 1 -7 -8 v-3 a3 3 0 0 1 3 -3 z"/>
  </g>
  <!-- wine glass -->
  <g fill="none" stroke="black" stroke-width="3.5" stroke-linecap="round" stroke-linejoin="round">
    <path d="M56 20 h20 l-3 18 a7 7 0 0 1 -14 0 z"/>
    <line x1="66" y1="44" x2="66" y2="78"/>
    <line x1="58" y1="80" x2="74" y2="80"/>
  </g>
</svg>
